<?xml version="1.0" encoding="iso-8859-1"?>
<!-- Generator: Adobe Illustrator 18.0.0, SVG Export Plug-In . SVG Version: 6.00 Build 0)  -->
<!DOCTYPE svg PUBLIC "-//W3C//DTD SVG 1.1//EN" "http://www.w3.org/Graphics/SVG/1.1/DTD/svg11.dtd">
<svg version="1.1" id="Capa_1" xmlns="http://www.w3.org/2000/svg" xmlns:xlink="http://www.w3.org/1999/xlink" x="0px" y="0px"
	 viewBox="0 0 485.986 485.986" style="enable-background:new 0 0 485.986 485.986;" xml:space="preserve">
<g>
	<path d="M110.075,188.687c2.347,0,4.25-1.903,4.25-4.25c0-2.347-1.903-4.25-4.25-4.25c-50.694,0-91.937,41.699-91.937,92.955
		c0,2.347,1.903,4.25,4.25,4.25s4.25-1.903,4.25-4.25C26.638,226.573,64.068,188.687,110.075,188.687z"/>
	<path d="M108.113,202.284c-38.65,0-70.094,31.787-70.094,70.858S69.463,344,108.113,344s70.094-31.787,70.094-70.858
		S146.763,202.284,108.113,202.284z M108.113,335.5c-33.963,0-61.594-27.974-61.594-62.358s27.631-62.358,61.594-62.358
		c33.963,0,61.594,27.974,61.594,62.358S142.077,335.5,108.113,335.5z"/>
	<path d="M382.207,180.782c-2.347,0-4.25,1.903-4.25,4.25c0,2.347,1.903,4.25,4.25,4.25c46.007,0,83.437,37.886,83.437,84.454
		c0,2.347,1.903,4.25,4.25,4.25c2.347,0,4.25-1.903,4.25-4.25C474.144,222.482,432.901,180.782,382.207,180.782z"/>
	<path d="M379.841,202.284c-38.649,0-70.093,31.787-70.093,70.858S341.191,344,379.841,344c38.65,0,70.095-31.787,70.095-70.858
		S418.491,202.284,379.841,202.284z M379.841,335.5c-33.963,0-61.593-27.974-61.593-62.358s27.63-62.358,61.593-62.358
		c33.963,0,61.595,27.974,61.595,62.358S413.804,335.5,379.841,335.5z"/>
	<path d="M470.454,208.688c-0.103-0.203-0.21-0.404-0.348-0.594L376.522,79.95c-0.594-0.848-1.2-1.683-1.825-2.499l-13.785-18.876
		c-0.053-0.073-0.109-0.144-0.166-0.213c-7.313-11.095-17.838-19.241-29.887-23.516l-14.798-20.262
		c-8.983-11.79-15.502-14.017-26.718-14.55c-9.282-0.447-18.67,3.503-25.105,10.554c-5.816,6.372-8.523,14.614-7.435,22.628
		l0.605,6.211l2.29,21.11c0.016,0.146,0.057,0.282,0.087,0.423c-3.447,5.842-5.944,12.317-7.277,19.21
		c-2.11-1.189-4.532-1.874-7.109-1.874c0,0-0.002,0-0.003,0c-2.579,0-5.003,0.687-7.115,1.877
		c-1.274-6.59-3.617-12.794-6.833-18.431l2.426-22.361l0.6-6.165c1.088-8.014-1.618-16.257-7.435-22.628
		c-6.435-7.05-15.827-10.993-25.105-10.554c-11.215,0.533-17.735,2.76-26.77,14.619l-14.584,19.971
		c-12.32,4.21-23.094,12.442-30.537,23.736c-0.058,0.069-0.113,0.141-0.167,0.214L20.683,208.094
		c-0.192,0.263-0.342,0.543-0.465,0.83C7.49,227.08,0,249.243,0,273.142c0,61.373,49.379,111.304,110.075,111.304
		c53.838,0,98.766-39.286,108.233-90.995c6.158,8.364,16.014,13.794,27.103,13.794c11.095,0,20.955-5.436,27.113-13.808
		c9.462,51.716,54.394,91.009,108.236,91.009c60.696,0,110.075-49.931,110.075-111.304
		C490.836,249.139,483.283,226.888,470.454,208.688z M275.799,239.593l-13.04-121.584c0.016-32.622,26.163-59.157,58.299-59.157
		c18.162,0,35.401,8.799,46.856,23.722l1.705,2.335c0.218,0.312,0.439,0.622,0.652,0.939c0.086,0.128,0.191,0.232,0.288,0.348
		l66.862,91.553c-16.562-10.096-35.951-15.912-56.66-15.912C331.623,161.837,289.907,194.565,275.799,239.593z M348.405,56.364
		c-8.532-3.906-17.823-6.011-27.346-6.011c-17.969,0-34.786,7.026-47.354,19.784c-5.887,5.976-10.514,12.904-13.786,20.444
		c0.626-28.026,23.32-50.635,51.146-50.635C325.386,39.945,338.808,45.966,348.405,56.364z M265.863,38.557l-0.608-6.248
		c-0.006-0.058-0.013-0.117-0.021-0.175c-0.783-5.611,1.093-11.228,5.281-15.815c4.75-5.203,11.641-8.117,18.425-7.795
		c8.713,0.415,12.994,1.544,20.309,11.142l8.915,12.207c-2.339-0.281-4.708-0.429-7.099-0.429c-17.328,0-32.949,7.51-43.86,19.472
		L265.863,38.557z M245.397,86.796L245.397,86.796c3.07,0,5.634,2.321,6.017,5.411c0.001,0.007,0,0.014,0.001,0.022l1.331,12.055
		c0.004,0.086,0.011,0.172,0.02,0.258l15.381,143.412c-6.004-5.535-13.986-8.916-22.736-8.916c-8.731,0-16.698,3.366-22.698,8.879
		L238.18,104.49l1.192-12.254C239.742,89.131,242.317,86.796,245.397,86.796z M119.908,86.638c0.26-0.232,0.503-0.487,0.706-0.789
		c11.362-16.904,29.76-26.996,49.214-26.996c32.131,0,58.271,26.551,58.271,59.187c0,0.116,0.025,0.226,0.034,0.34l-13.077,121.273
		c-14.09-45.058-55.822-77.814-104.981-77.814c-20.743,0-40.163,5.835-56.744,15.963L119.908,86.638z M181.977,19.735
		c7.366-9.667,11.647-10.796,20.36-11.211c6.801-0.326,13.675,2.591,18.425,7.795c4.188,4.587,6.064,10.204,5.281,15.815
		c-0.008,0.058-0.015,0.117-0.021,0.175l-0.604,6.202l-1.398,12.886c-10.929-12.242-26.738-19.951-44.298-19.951
		c-2.21,0-4.401,0.129-6.567,0.37L181.977,19.735z M179.724,39.945c27.765,0,50.42,22.511,51.14,50.453
		c-3.265-7.469-7.861-14.333-13.697-20.26c-12.56-12.758-29.372-19.785-47.34-19.785c-9.584,0-18.933,2.131-27.509,6.084
		C151.919,45.994,165.369,39.945,179.724,39.945z M110.075,375.945C54.066,375.945,8.5,329.828,8.5,273.142
		s45.566-102.804,101.575-102.804s101.576,46.118,101.576,102.804S166.084,375.945,110.075,375.945z M245.412,298.744
		c-13.929,0-25.261-11.485-25.261-25.603c0-14.118,11.332-25.604,25.261-25.604c13.929,0,25.261,11.486,25.261,25.604
		C270.672,287.259,259.34,298.744,245.412,298.744z M380.761,375.945c-56.009,0-101.576-46.118-101.576-102.804
		c0-56.687,45.567-102.804,101.576-102.804c56.009,0,101.575,46.118,101.575,102.804
		C482.336,329.828,436.77,375.945,380.761,375.945z"/>
</g>
<g>
</g>
<g>
</g>
<g>
</g>
<g>
</g>
<g>
</g>
<g>
</g>
<g>
</g>
<g>
</g>
<g>
</g>
<g>
</g>
<g>
</g>
<g>
</g>
<g>
</g>
<g>
</g>
<g>
</g>
</svg>
