<svg id="Layer_5" enable-background="new 0 0 64 64" height="512" viewBox="0 0 64 64" width="512" xmlns="http://www.w3.org/2000/svg"><path d="m37.186 7.183c.592-.121 1.202-.183 1.814-.183v-2c-.746 0-1.492.075-2.216.224z"/><path d="m28 16h2c0-3.64 2.169-6.9 5.527-8.306l-.772-1.844c-4.104 1.717-6.755 5.701-6.755 10.15z"/><path d="m54 16.056c0-.019 0-.037 0-.056 0-8.271-6.729-15-15-15-4.935 0-9.307 2.406-12.042 6.095-1.552-.705-3.242-1.095-4.958-1.095-5.872 0-10.888 4.34-11.833 10.042-5.125.426-9.167 4.725-9.167 9.958 0 5.514 4.486 10 10 10h8v-2h-8c-4.411 0-8-3.589-8-8s3.589-8 8-8c2.118 0 4.114.819 5.62 2.307l1.405-1.423c-1.597-1.578-3.637-2.546-5.834-2.806.906-4.608 5.016-8.078 9.809-8.078 1.329 0 2.641.275 3.858.783-1.182 2.143-1.858 4.602-1.858 7.217h2c0-7.168 5.832-13 13-13s13 5.832 13 13c0 .28-.021.556-.048.931l-.027 1.069h1.075c4.411 0 8 3.589 8 8s-3.589 8-8 8h-8v2h8c5.514 0 10-4.486 10-10 0-5.163-3.932-9.424-9-9.944z"/><path d="m52 46.883v-7.766l-4.649-.581c-.327-1.124-.775-2.207-1.341-3.233l2.877-3.699-5.491-5.491-3.699 2.877c-1.026-.565-2.109-1.014-3.233-1.341l-.581-4.649h-7.766l-.581 4.649c-1.124.327-2.207.775-3.233 1.341l-3.699-2.877-5.491 5.491 2.877 3.699c-.565 1.026-1.014 2.109-1.341 3.233l-4.649.581v7.766l4.649.581c.327 1.124.775 2.207 1.341 3.233l-2.877 3.699 5.491 5.491 3.699-2.877c1.026.565 2.109 1.014 3.233 1.341l.581 4.649h7.766l.581-4.649c1.124-.327 2.207-.775 3.233-1.341l3.699 2.877 5.491-5.491-2.877-3.699c.565-1.026 1.014-2.109 1.341-3.233zm-20 6.117c-5.523 0-10-4.477-10-10s4.477-10 10-10 10 4.477 10 10-4.477 10-10 10z" fill="#f0bc5e"/><path d="m32 51c-4.411 0-8-3.589-8-8s3.589-8 8-8 8 3.589 8 8-3.589 8-8 8zm0-14c-3.309 0-6 2.691-6 6s2.691 6 6 6 6-2.691 6-6-2.691-6-6-6z"/><path d="m32.016 55c-.397 0-.744-.016-1.11-.05l.183-1.991c.305.027.611.035.925.041.311 0 .618-.015.92-.042l.185 1.991c-.364.033-.732.051-1.103.051zm-3.286-.451c-.711-.201-1.406-.47-2.066-.798l.891-1.791c.549.273 1.128.497 1.72.664zm6.564-.007-.548-1.924c.59-.168 1.168-.393 1.718-.667l.894 1.789c-.661.33-1.355.6-2.064.802zm-10.513-1.955c-.588-.443-1.139-.944-1.637-1.488l1.476-1.351c.416.454.875.872 1.366 1.242zm14.457-.015-1.207-1.595c.49-.371.949-.79 1.363-1.244l1.479 1.347c-.498.545-1.047 1.046-1.635 1.492zm-17.431-3.237c-.391-.628-.724-1.293-.991-1.979l1.863-.727c.222.57.5 1.125.826 1.648zm20.399-.021-1.699-1.055c.324-.522.601-1.077.822-1.65l1.865.723c-.267.689-.599 1.356-.988 1.982zm-21.999-4.086c-.135-.721-.205-1.462-.207-2.203l2-.004c.001.618.059 1.236.172 1.837zm23.591-.025-1.967-.365c.112-.602.169-1.22.169-1.838l2-.046v.077c0 .709-.068 1.45-.202 2.172zm-21.634-4.02-1.967-.36c.133-.727.335-1.444.6-2.132l1.866.719c-.22.571-.388 1.168-.499 1.773zm19.66-.061c-.115-.604-.287-1.2-.511-1.772l1.862-.729c.269.686.476 1.402.614 2.127zm-18.341-3.365-1.702-1.051c.387-.627.835-1.222 1.331-1.768l1.481 1.344c-.414.456-.787.952-1.11 1.475zm17.001-.053c-.326-.521-.702-1.014-1.119-1.468l1.473-1.353c.5.543.951 1.136 1.341 1.76zm-14.531-2.669-1.211-1.592c.589-.448 1.221-.842 1.878-1.172l.896 1.788c-.546.274-1.072.603-1.563.976zm12.045-.037c-.493-.37-1.021-.696-1.571-.967l.887-1.793c.66.326 1.294.717 1.885 1.161zm-8.764-1.611-.553-1.922c.708-.204 1.44-.342 2.176-.411l.188 1.991c-.613.058-1.222.173-1.811.342zm5.472-.017c-.592-.166-1.202-.277-1.814-.331l.176-1.992c.735.065 1.467.199 2.177.397z"/><path d="m61 40c0-1.654-1.346-3-3-3s-3 1.346-3 3c0 1.301.837 2.4 1.997 2.815 0 .062.003.123.003.185 0 6.898-2.892 13.558-7.935 18.27l1.365 1.461c5.446-5.089 8.57-12.281 8.57-19.731 0-.061-.003-.122-.004-.183 1.164-.413 2.004-1.514 2.004-2.817zm-3 1c-.551 0-1-.449-1-1s.449-1 1-1 1 .449 1 1-.449 1-1 1z"/><path d="m12 57c-.221 0-.435.028-.643.073-2.842-4.157-4.357-9-4.357-14.073 0-1.618.155-3.236.462-4.809l-1.963-.383c-.331 1.699-.499 3.446-.499 5.192 0 5.454 1.622 10.662 4.665 15.139-.41.513-.665 1.155-.665 1.861 0 1.654 1.346 3 3 3s3-1.346 3-3-1.346-3-3-3zm0 4c-.551 0-1-.449-1-1s.449-1 1-1 1 .449 1 1-.449 1-1 1z"/></svg>