<?xml version="1.0" encoding="iso-8859-1"?>
<!-- Generator: Adobe Illustrator 21.0.0, SVG Export Plug-In . SVG Version: 6.00 Build 0)  -->
<svg xmlns="http://www.w3.org/2000/svg" xmlns:xlink="http://www.w3.org/1999/xlink" version="1.1" id="Capa_1" x="0px" y="0px" viewBox="0 0 512 512" style="enable-background:new 0 0 512 512;" xml:space="preserve" width="512" height="512">
<g>
	<rect x="176.586" y="425.341" style="fill:#326ED3;" width="158.037" height="71.655"/>
	<path style="fill:#EDF5FF;" d="M25.131,86.096v263.448h461.738V86.096H25.131z"/>
	<path style="fill:#6598EA;" d="M25.131,334.315V440.34h461.738V334.315H25.131z"/>
	<g>
		<rect x="256" y="425.341" style="fill:#0841A3;" width="78.623" height="71.655"/>
		<rect x="256" y="86.096" style="fill:#D7E9FF;" width="230.869" height="263.448"/>
	</g>
	<path style="fill:#FC0E3C;" d="M376.876,257.375l-72.394-43.84l5.441-85.456l21.735,14.21   c22.427,14.664,36.939,38.353,39.814,64.994L376.876,257.375z"/>
	<path style="fill:#FC5755;" d="M136.222,257.375l72.394-43.84l-5.441-85.456l-21.735,14.21   c-22.427,14.664-36.939,38.353-39.814,64.994L136.222,257.375z"/>
	<path style="fill:#F3C86A;" d="M335.407,269.578H176.356l21.381-167.214c4.545-35.545,21.581-68.472,47.97-92.715L255.792,0   l10.229,9.666c26.411,24.228,43.459,57.15,48.005,92.701L335.407,269.578z"/>
	<path style="fill:#FC5755;" d="M256,327.937l-23.798-120.251c-1.862-7.512-0.055-15.49,4.898-21.472   c4.574-5.526,11.313-8.753,18.488-8.853c7.17-0.126,14.001,2.938,18.729,8.335l0.13,0.148c5.299,6.048,7.272,14.216,5.348,21.984   L256,327.937z"/>
	<path style="fill:#FDAB29;" d="M314.026,102.367c-4.546-35.551-21.594-68.473-48.005-92.701L256,0v269.578h79.407L314.026,102.367z   "/>
	<path style="fill:#FC5755;" d="M311.978,90.308c-6.519-30.892-22.56-59.179-45.956-80.642L255.792,0l-10.085,9.649   c-23.402,21.499-39.44,49.829-45.943,80.757c16.258,10.14,35.457,16.005,56.028,16.005   C276.43,106.411,295.687,100.508,311.978,90.308z"/>
	<g>
		<path style="fill:#FC0E3C;" d="M274.316,185.696c-4.637-5.294-11.298-8.335-18.316-8.331v150.572l23.794-120.108    c1.925-7.768-0.049-15.936-5.348-21.984L274.316,185.696z"/>
		<path style="fill:#FC0E3C;" d="M266.021,9.666L255.792,0L256,106.407c20.559-0.04,39.742-5.934,55.978-16.099    C305.459,59.416,289.418,31.128,266.021,9.666z"/>
	</g>
	<rect x="137.839" y="482" style="fill:#6598EA;" width="236.321" height="30"/>
	<g>
		<rect x="256" y="482" style="fill:#326ED3;" width="118.161" height="30"/>
		<rect x="256" y="334.315" style="fill:#326ED3;" width="230.869" height="106.025"/>
	</g>
	<rect x="242.563" y="373.555" style="fill:#326ED3;" width="26.873" height="30"/>
	<rect x="256" y="373.555" style="fill:#0841A3;" width="13.437" height="30"/>
</g>















</svg>
