<svg xmlns="http://www.w3.org/2000/svg" viewBox="0 0 40 40" width="480" height="480"><path fill="#7a4f34" d="M20 13A6 12.5 0 1 0 20 38A6 12.5 0 1 0 20 13Z"/><path fill="none" stroke="#7a4f34" stroke-linecap="round" stroke-miterlimit="10" d="M5.5 8.5L8.5 15.5 18 18M13.5 2.5L11.5 9.5 17 17M3.5 31.5c0-5.525 7.469-12.281 14.118-14.382M34.5 8.5L31.5 15.5 22 18M26.5 2.5L28.5 9.5 23 17M36.5 31.5c0-5.525-7.469-12.281-14.118-14.382"/><path fill="#c2e8ff" d="M11,36.5c-1.353,0-4.5-0.438-4.5-4.5c0-6.379,7.535-16.5,10.5-16.5c0.953,0,1.5,1.64,1.5,4.5v8 C18.5,32.787,14.469,36.5,11,36.5z"/><path fill="#7496c4" d="M17,16c0.402,0,1,1.065,1,4v8c0,4.431-3.829,8-7,8c-1.494,0-4-0.52-4-4C7,26.1,14.376,16,17,16 M17,15C13.54,15,6,25.75,6,32c0,3.55,2.313,5,5,5c3.906,0,8-4.156,8-9c0-2.198,0-5,0-8C19,16.727,18.312,15,17,15L17,15z"/><g><path fill="#c2e8ff" d="M29,36.5c-3.469,0-7.5-3.713-7.5-8.5v-8c0-2.86,0.547-4.5,1.5-4.5c2.965,0,10.5,10.121,10.5,16.5 C33.5,36.062,30.353,36.5,29,36.5z"/><path fill="#7496c4" d="M23,16c2.624,0,10,10.1,10,16c0,3.48-2.506,4-4,4c-3.171,0-7-3.569-7-8v-8 C22,17.065,22.598,16,23,16 M23,15c-1.312,0-2,1.727-2,5c0,3,0,5.802,0,8c0,4.844,4.094,9,8,9c2.688,0,5-1.45,5-5 C34,25.75,26.46,15,23,15L23,15z"/></g><g><path fill="#a6714e" d="M20 10.5A4.5 6 0 1 0 20 22.5A4.5 6 0 1 0 20 10.5Z"/><path fill="#7a4f34" d="M20,11c2.206,0,4,2.467,4,5.5S22.206,22,20,22s-4-2.467-4-5.5S17.794,11,20,11 M20,10 c-2.761,0-5,2.91-5,6.5s2.239,6.5,5,6.5s5-2.91,5-6.5S22.761,10,20,10L20,10z"/></g><path fill="#7a4f34" d="M20 3A2 3.5 0 1 0 20 10A2 3.5 0 1 0 20 3Z"/><path fill="#7a4f34" d="M18 5H22V14H18z"/><g><path fill="#f78f8f" d="M22,13.5c-1.354,0-1.5-2.085-1.5-2.981c0-3.33,0.505-5.019,1.5-5.019c1.133,0,2.5,2.007,2.5,4.5 C24.5,11.307,24.175,13.5,22,13.5z"/><path fill="#7a4f34" d="M22,6c0.687,0,2,1.558,2,4c0,1.369-0.347,3-2,3c-0.737,0-1-1.282-1-2.482C21,6.127,21.898,6,22,6 M22,5c-1.917,0-2,3.698-2,5.518C20,12.889,20.814,14,22,14c2.22,0,3-1.931,3-4C25,7.198,23.429,5,22,5L22,5z"/></g><g><path fill="#f78f8f" d="M18,13.5c-2.175,0-2.5-2.193-2.5-3.5c0-2.493,1.367-4.5,2.5-4.5c0.995,0,1.5,1.688,1.5,5.019 C19.5,11.415,19.354,13.5,18,13.5z"/><path fill="#7a4f34" d="M18,6c0.102,0,1,0.127,1,4.518c0,1.2-0.263,2.482-1,2.482c-1.653,0-2-1.631-2-3 C16,7.558,17.313,6,18,6 M18,5c-1.429,0-3,2.198-3,5c0,2.069,0.78,4,3,4c1.186,0,2-1.111,2-3.482C20,8.698,19.917,5,18,5L18,5z"/></g></svg>