<svg xmlns="http://www.w3.org/2000/svg" viewBox="0 0 100 100" width="500" height="500"><path fill="#c8ede6" d="M85.703,55.884c0.3-0.616,0.566-1.264,0.796-1.943c2.633-7.77-1.349-17.078-9.733-19.325c-0.906-11.384-8.906-19.193-17.941-20.526c-10.341-1.525-19.814,5.044-22.966,15.485c-3.799-1.346-7.501-1.182-10.99,0.857c-1.583,0.732-3.031,1.812-4.33,3.233c-1.907,2.086-3.147,4.719-3.652,7.495c-0.748,0.118-1.483,0.236-2.176,0.484c-4.04,1.449-6.589,4.431-7.288,8.923c-0.435,2.797,0.443,5.587,0.933,6.714c1.935,4.455,6.422,6.98,10.981,6.312c0.227-0.033,0.557,0.069,0.752,0.233c0.241,7.12,3.698,13.417,8.884,17.014c8.321,5.772,19.027,3.994,25.781-3.921c2.894,2.96,6.338,4.398,10.384,3.876c4.023-0.519,7.147-2.739,9.426-6.349c1.053,0.283,2.051,0.691,3.083,0.804c4.042,0.442,7.297-1.184,9.732-4.8c0.083-0.124,0.203-0.219,0.306-0.328c0.348-0.798,0.696-1.596,1.044-2.394c0.155-1.211,0.429-2.423,0.443-3.632C89.211,60.841,87.88,57.874,85.703,55.884z"/><path fill="#fdfcef" d="M74.788,63.473c0,0,11.691,0,11.762,0c2.7,0,4.888-2.189,4.888-4.889c0-2.355-1.666-4.321-3.884-4.784c0.026-0.206,0.043-0.415,0.043-0.628c0-2.796-2.267-5.063-5.063-5.063c-1.651,0-3.113,0.794-4.037,2.017c-0.236-3.113-3.017-5.514-6.27-5.116c-2.379,0.291-4.346,2.13-4.784,4.486c-0.14,0.756-0.126,1.489,0.014,2.177c-0.638-0.687-1.546-1.119-2.557-1.119c-1.85,0-3.361,1.441-3.48,3.261c-0.84-0.186-1.754-0.174-2.717,0.188c-1.84,0.691-3.15,2.423-3.227,4.387c-0.109,2.789,2.12,5.085,4.885,5.085c0.21,0,0.948,0,1.118,0h10.151"/><path fill="#472b29" d="M86.55,63.974H74.788c-0.276,0-0.5-0.224-0.5-0.5s0.224-0.5,0.5-0.5H86.55c2.42,0,4.389-1.969,4.389-4.389c0-2.067-1.466-3.873-3.486-4.295c-0.255-0.053-0.426-0.292-0.394-0.55c0.023-0.186,0.039-0.375,0.039-0.567c0-2.516-2.047-4.563-4.563-4.563c-1.438,0-2.765,0.663-3.638,1.818c-0.125,0.166-0.339,0.24-0.54,0.178c-0.199-0.059-0.342-0.234-0.357-0.441c-0.104-1.377-0.779-2.671-1.851-3.549c-1.082-0.887-2.45-1.282-3.86-1.109c-2.166,0.265-3.956,1.943-4.353,4.081c-0.124,0.667-0.12,1.335,0.013,1.986c0.044,0.22-0.062,0.442-0.262,0.544c-0.198,0.102-0.442,0.06-0.595-0.105c-0.574-0.618-1.352-0.959-2.19-0.959c-1.569,0-2.878,1.227-2.981,2.793c-0.01,0.146-0.082,0.28-0.199,0.367c-0.117,0.087-0.268,0.119-0.408,0.088c-0.841-0.187-1.637-0.132-2.433,0.167c-1.669,0.626-2.835,2.209-2.903,3.938c-0.047,1.207,0.387,2.35,1.222,3.218c0.835,0.868,1.958,1.347,3.163,1.347h11.269c0.276,0,0.5,0.224,0.5,0.5s-0.224,0.5-0.5,0.5H60.362c-1.479,0-2.858-0.587-3.884-1.654c-1.025-1.066-1.558-2.469-1.5-3.95c0.083-2.126,1.51-4.069,3.55-4.836c0.8-0.301,1.626-0.402,2.468-0.298c0.377-1.823,1.998-3.182,3.905-3.182c0.685,0,1.354,0.179,1.944,0.509c0-0.385,0.035-0.772,0.106-1.159c0.477-2.562,2.621-4.573,5.215-4.891c1.678-0.207,3.319,0.266,4.615,1.328c1.004,0.823,1.716,1.951,2.038,3.193c1.012-0.916,2.319-1.425,3.714-1.425c3.067,0,5.563,2.496,5.563,5.563c0,0.083-0.002,0.166-0.007,0.249c2.254,0.673,3.848,2.777,3.848,5.164C91.938,61.556,89.521,63.974,86.55,63.974z"/><path fill="#fdfcef" d="M71.955,52.705c-1.808-0.119-3.365,1.13-3.476,2.789c-0.014,0.206-0.005,0.409,0.025,0.606c-0.349-0.394-0.865-0.661-1.458-0.7c-1.085-0.071-2.022,0.645-2.158,1.62c-0.197-0.054-0.403-0.09-0.616-0.104c-1.582-0.104-2.944,0.989-3.042,2.441"/><path fill="#472b29" d="M61.23,59.606c-0.006,0-0.012,0-0.017,0c-0.138-0.009-0.242-0.128-0.233-0.266c0.106-1.586,1.583-2.789,3.308-2.674c0.136,0.009,0.272,0.027,0.409,0.053c0.273-0.968,1.259-1.646,2.365-1.568c0.425,0.028,0.824,0.161,1.164,0.382c0-0.019,0.002-0.037,0.003-0.055c0.12-1.794,1.783-3.154,3.743-3.022c0.138,0.009,0.242,0.128,0.233,0.266c-0.009,0.138-0.125,0.252-0.266,0.233c-1.667-0.105-3.108,1.037-3.21,2.557c-0.012,0.184-0.004,0.37,0.023,0.552c0.017,0.109-0.041,0.217-0.141,0.264c-0.101,0.047-0.22,0.022-0.293-0.061c-0.317-0.358-0.787-0.583-1.288-0.616c-0.935-0.066-1.774,0.555-1.893,1.405c-0.01,0.071-0.05,0.134-0.11,0.174c-0.06,0.04-0.134,0.052-0.203,0.033c-0.189-0.051-0.381-0.084-0.568-0.096c-1.433-0.096-2.687,0.896-2.776,2.208C61.471,59.505,61.361,59.606,61.23,59.606z"/><path fill="#fdfcef" d="M88.529,54.373c-1.699-0.801-3.664-0.234-4.389,1.267c-0.09,0.186-0.157,0.379-0.201,0.574"/><path fill="#472b29" d="M83.939,56.463c-0.018,0-0.037-0.002-0.056-0.006c-0.135-0.031-0.219-0.165-0.188-0.299c0.049-0.216,0.123-0.427,0.22-0.626c0.783-1.622,2.902-2.242,4.72-1.384c0.125,0.059,0.179,0.208,0.12,0.333c-0.059,0.125-0.21,0.178-0.333,0.12c-1.576-0.742-3.394-0.227-4.057,1.149c-0.08,0.166-0.142,0.34-0.183,0.52C84.157,56.385,84.054,56.463,83.939,56.463z"/><path fill="#ef8f70" d="M51.507,27.41v36.148v6.856v5.609h12.465V27.41H51.507z M58.051,73.219c-0.688,0-1.247-0.558-1.247-1.247s0.558-1.246,1.247-1.246s1.247,0.558,1.247,1.246S58.74,73.219,58.051,73.219z"/><path fill="#fff" d="M15.993 47.92H5.963c-.276 0-.5-.224-.5-.5s.224-.5.5-.5h10.03c.276 0 .5.224.5.5S16.27 47.92 15.993 47.92zM18.875 47.92h-1.446c-.276 0-.5-.224-.5-.5s.224-.5.5-.5h1.446c.276 0 .5.224.5.5S19.151 47.92 18.875 47.92zM22.929 47.92h-2.546c-.276 0-.5-.224-.5-.5s.224-.5.5-.5h2.546c.276 0 .5.224.5.5S23.206 47.92 22.929 47.92zM22.929 49.785h-9.616c-.276 0-.5-.224-.5-.5s.224-.5.5-.5h9.616c.276 0 .5.224.5.5S23.206 49.785 22.929 49.785zM11.581 49.785h-.58c-.276 0-.5-.224-.5-.5s.224-.5.5-.5h.58c.276 0 .5.224.5.5S11.858 49.785 11.581 49.785zM9.205 49.785H7.748c-.276 0-.5-.224-.5-.5s.224-.5.5-.5h1.457c.276 0 .5.224.5.5S9.481 49.785 9.205 49.785zM18.341 46.055h-5.027c-.276 0-.5-.224-.5-.5s.224-.5.5-.5h5.027c.276 0 .5.224.5.5S18.617 46.055 18.341 46.055zM18.341 44.19h-1.257c-.276 0-.5-.224-.5-.5s.224-.5.5-.5h1.257c.276 0 .5.224.5.5S18.617 44.19 18.341 44.19zM15.072 51.65h-1.758c-.276 0-.5-.224-.5-.5s.224-.5.5-.5h1.758c.276 0 .5.224.5.5S15.348 51.65 15.072 51.65z"/><path fill="#fdfcef" d="M37.316,68.376c1.883,0,3.517,0,3.54,0c2.11,0,3.821-1.674,3.821-3.739c0-1.802-1.302-3.305-3.035-3.66c0.02-0.158,0.034-0.317,0.034-0.48c0-2.139-1.772-3.873-3.957-3.873c-1.29,0-2.433,0.607-3.155,1.543c-0.185-2.381-2.358-4.218-4.9-3.913c-1.859,0.223-3.397,1.629-3.739,3.431c-0.11,0.578-0.098,1.139,0.011,1.665c-0.498-0.525-1.208-0.856-1.998-0.856c-1.446,0-2.627,1.102-2.72,2.494c-0.657-0.142-1.371-0.133-2.123,0.143c-1.438,0.528-2.462,1.853-2.522,3.356c-0.085,2.133,1.657,3.889,3.818,3.889c0.164,0,0.741,0,0.874,0h7.934 M30.839,68.376h0.36"/><path fill="#472b29" d="M40.856,68.876h-3.541c-0.276,0-0.5-0.224-0.5-0.5s0.224-0.5,0.5-0.5h3.541c1.831,0,3.32-1.453,3.32-3.239c0-1.524-1.108-2.857-2.635-3.17c-0.256-0.052-0.429-0.293-0.396-0.553c0.018-0.137,0.03-0.276,0.03-0.417c0-1.86-1.551-3.373-3.457-3.373c-1.092,0-2.098,0.491-2.759,1.348c-0.127,0.164-0.34,0.233-0.539,0.173c-0.198-0.059-0.339-0.234-0.355-0.44c-0.079-1.019-0.565-1.943-1.369-2.603c-0.828-0.679-1.885-0.982-2.973-0.853c-1.646,0.197-3.006,1.442-3.307,3.028c-0.094,0.495-0.09,0.99,0.01,1.471c0.045,0.219-0.06,0.441-0.258,0.544c-0.196,0.104-0.44,0.063-0.595-0.099c-0.428-0.452-1.009-0.7-1.635-0.7c-1.169,0-2.145,0.891-2.221,2.027c-0.01,0.145-0.082,0.279-0.198,0.366c-0.116,0.087-0.264,0.12-0.407,0.089c-0.637-0.139-1.241-0.098-1.845,0.124c-1.262,0.464-2.144,1.632-2.195,2.906c-0.035,0.875,0.283,1.708,0.895,2.344c0.635,0.661,1.496,1.025,2.423,1.025h8.808c0.276,0,0.5,0.224,0.5,0.5s-0.224,0.5-0.5,0.5h-8.808c-1.185,0-2.331-0.485-3.145-1.332c-0.802-0.835-1.218-1.928-1.172-3.077c0.066-1.674,1.211-3.203,2.849-3.805c0.611-0.225,1.242-0.306,1.88-0.245c0.344-1.396,1.629-2.424,3.136-2.424c0.493,0,0.976,0.113,1.414,0.323c0.009-0.241,0.036-0.483,0.082-0.725c0.381-2.01,2.097-3.586,4.17-3.835c1.359-0.162,2.685,0.218,3.727,1.073c0.748,0.613,1.278,1.409,1.546,2.301c0.791-0.648,1.785-1.006,2.842-1.006c2.458,0,4.457,1.961,4.457,4.373c0,0.034,0,0.068-0.001,0.103c1.764,0.555,3.003,2.188,3.003,4.038C45.177,66.974,43.239,68.876,40.856,68.876z M31.198,68.876h-0.359c-0.276,0-0.5-0.224-0.5-0.5s0.224-0.5,0.5-0.5h0.359c0.276,0,0.5,0.224,0.5,0.5S31.474,68.876,31.198,68.876z"/><path fill="#472b29" d="M39.149 63.073c-.018 0-.036-.002-.055-.006-.135-.03-.219-.164-.189-.299.037-.166.094-.327.169-.479.604-1.224 2.274-1.674 3.722-1.007.125.058.18.207.122.332-.058.125-.206.179-.332.122-1.202-.554-2.577-.209-3.063.774-.058.116-.101.24-.129.367C39.366 62.994 39.263 63.073 39.149 63.073zM33.99 68.876h-1.107c-.276 0-.5-.224-.5-.5s.224-.5.5-.5h1.107c.276 0 .5.224.5.5S34.266 68.876 33.99 68.876z"/><path fill="#fff" d="M65.319 23.508h-10.03c-.276 0-.5-.224-.5-.5s.224-.5.5-.5h10.03c.276 0 .5.224.5.5S65.595 23.508 65.319 23.508zM68.2 23.508h-1.446c-.276 0-.5-.224-.5-.5s.224-.5.5-.5H68.2c.276 0 .5.224.5.5S68.477 23.508 68.2 23.508zM72.255 23.508h-2.546c-.276 0-.5-.224-.5-.5s.224-.5.5-.5h2.546c.276 0 .5.224.5.5S72.532 23.508 72.255 23.508zM70.229 19.778h-9.616c-.276 0-.5-.224-.5-.5s.224-.5.5-.5h9.616c.276 0 .5.224.5.5S70.506 19.778 70.229 19.778zM58.881 19.778h-.58c-.276 0-.5-.224-.5-.5s.224-.5.5-.5h.58c.276 0 .5.224.5.5S59.158 19.778 58.881 19.778zM56.505 19.778h-1.457c-.276 0-.5-.224-.5-.5s.224-.5.5-.5h1.457c.276 0 .5.224.5.5S56.781 19.778 56.505 19.778zM67.666 21.643h-5.027c-.276 0-.5-.224-.5-.5s.224-.5.5-.5h5.027c.276 0 .5.224.5.5S67.943 21.643 67.666 21.643z"/><path fill="#fff" d="M67.666 19.778h-1.257c-.276 0-.5-.224-.5-.5s.224-.5.5-.5h1.257c.276 0 .5.224.5.5S67.943 19.778 67.666 19.778zM61.183 21.643h-1.759c-.276 0-.5-.224-.5-.5s.224-.5.5-.5h1.759c.276 0 .5.224.5.5S61.46 21.643 61.183 21.643z"/><g><path fill="#fdfcee" d="M35.622,27.931L35.622,27.931c-3.016,0.649-5.171,2.633-4.789,4.41l7.452,34.65c0.345,1.605,6.068,8.865,7.273,10.726c0.122,0.188,0.345,0.278,0.563,0.231l0.376-0.081c0.289-0.062,0.51-0.294,0.554-0.586c0.373-2.456,2.541-11.071,2.202-12.649L41.8,29.981C41.418,28.205,38.638,27.282,35.622,27.931z"/><path fill="#f48e8f" d="M42.951,35.332l-1.317-6.124c-0.382-1.777-3.162-2.699-6.179-2.051l0,0c-3.016,0.649-5.171,2.633-4.789,4.41l1.254,5.828C35.592,36.689,39.284,36.063,42.951,35.332z"/><path fill="#605e60" d="M43.01,74.163c1.129,1.534,2.114,2.863,2.55,3.536c0.131,0.202,0.371,0.299,0.606,0.248l0.405-0.087c0.314-0.068,0.549-0.323,0.598-0.64c0.13-0.853,0.458-2.386,0.832-4.13L43.01,74.163z"/><path fill="#fbb821" d="M35.255 37.968H46.473V66.637H35.255z" transform="rotate(-12.14 40.857 52.296)"/><path fill="#beace5" d="M31.716 33.359H42.934V38.345H31.716z" transform="rotate(-12.14 37.32 35.847)"/><g><path fill="#472b29" d="M45.871,78.001c-0.396,0-0.767-0.197-0.989-0.54c-0.361-0.558-1.163-1.646-2.091-2.905c-2.835-3.848-5.024-6.883-5.272-8.038l-7.452-34.65c-0.235-1.094,0.231-2.245,1.315-3.243c0.991-0.913,2.402-1.601,3.973-1.939c1.571-0.339,3.14-0.291,4.418,0.134c1.398,0.464,2.297,1.322,2.532,2.415l7.453,34.65c0.241,1.119-0.438,4.462-1.424,9.064c-0.35,1.634-0.653,3.046-0.77,3.819c-0.085,0.562-0.501,1.003-1.06,1.124l-0.376,0.081C46.041,77.992,45.955,78.001,45.871,78.001z M37.407,27.762c-0.574,0-1.175,0.065-1.779,0.195c-1.347,0.29-2.542,0.867-3.365,1.625c-0.423,0.39-1.106,1.169-0.925,2.013l7.452,34.65c0.209,0.974,3.238,5.084,5.048,7.541c0.906,1.229,1.692,2.297,2.091,2.902l0.301-0.065c0.171-0.86,0.477-2.289,0.832-3.944c0.647-3.021,1.625-7.586,1.425-8.519l-7.453-34.65c-0.135-0.625-0.728-1.142-1.671-1.455C38.778,27.86,38.112,27.762,37.407,27.762z"/><path fill="#472b29" d="M32.3 39.514c-.161 0-.306-.112-.342-.276-.041-.189.08-.375.269-.416l10.967-2.359c.186-.043.375.08.416.269.041.189-.08.375-.269.416l-10.967 2.359C32.349 39.511 32.325 39.514 32.3 39.514zM31.556 34.574c-.161 0-.307-.112-.342-.277-.041-.189.08-.375.269-.416l7.922-1.698c.182-.043.375.079.416.269.041.189-.08.375-.269.416l-7.922 1.698C31.605 34.571 31.58 34.574 31.556 34.574zM31.95 36.402c-.161 0-.306-.112-.342-.276-.041-.189.08-.375.269-.416l10.534-2.266c.188-.042.375.079.416.269.041.189-.08.375-.269.416l-10.534 2.266C31.999 36.399 31.974 36.402 31.95 36.402zM38.394 67.847c-.161 0-.306-.112-.342-.276-.041-.189.08-.375.269-.416l10.967-2.359c.186-.044.375.08.416.269.041.189-.08.375-.269.416l-10.967 2.359C38.443 67.845 38.418 67.847 38.394 67.847zM43.252 74.133c-.161 0-.306-.112-.342-.276-.041-.189.08-.375.269-.416l4.266-.917c.189-.042.375.079.416.269.041.189-.08.375-.269.416l-4.266.917C43.301 74.131 43.276 74.133 43.252 74.133z"/><path fill="#472b29" d="M40.199 65.865c-.161 0-.306-.112-.342-.276l-5.766-26.81c-.041-.189.08-.375.269-.416.189-.044.375.08.416.269l5.766 26.81c.041.189-.08.375-.269.416C40.248 65.862 40.223 65.865 40.199 65.865zM46.115 60.768c-.161 0-.306-.112-.342-.276l-4.98-23.154c-.041-.189.08-.375.269-.416.188-.042.375.079.416.269l4.98 23.154c.041.189-.08.375-.269.416C46.164 60.765 46.139 60.768 46.115 60.768zM45.073 64.816c-.161 0-.306-.112-.342-.276l-4.979-23.154c-.041-.189.08-.375.269-.416.187-.042.375.079.416.269l4.979 23.154c.041.189-.08.375-.269.416C45.122 64.814 45.097 64.816 45.073 64.816zM42.027 65.472c-.161 0-.306-.112-.342-.276l-5.766-26.81c-.041-.189.08-.375.269-.416.187-.044.375.08.416.269l5.766 26.81c.041.189-.08.375-.269.416C42.076 65.469 42.051 65.472 42.027 65.472zM46.639 63.205c-.161 0-.306-.112-.342-.276l-.262-1.218c-.041-.189.08-.375.269-.416.187-.042.375.079.416.269l.262 1.218c.041.189-.08.375-.269.416C46.688 63.202 46.663 63.205 46.639 63.205zM39.831 40.444c-.161 0-.306-.112-.342-.276l-.524-2.437c-.041-.189.08-.375.269-.416.187-.042.375.079.416.269l.524 2.437c.041.189-.08.375-.269.416C39.881 40.441 39.856 40.444 39.831 40.444zM40.696 32.608c-.161 0-.306-.112-.342-.276-.041-.189.08-.375.269-.416l1.394-.3c.187-.043.375.08.416.269.041.189-.08.375-.269.416l-1.394.3C40.745 32.605 40.721 32.608 40.696 32.608z"/></g></g><path fill="#472b29" d="M63.972,76.631H51.507c-0.359,0-0.65-0.291-0.65-0.65v-5.609c0-0.359,0.291-0.65,0.65-0.65s0.65,0.291,0.65,0.65v4.959h11.165V28.018H52.157v35.499c0,0.359-0.291,0.65-0.65,0.65s-0.65-0.291-0.65-0.65V27.368c0-0.359,0.291-0.65,0.65-0.65h12.465c0.359,0,0.65,0.291,0.65,0.65v48.613C64.622,76.34,64.331,76.631,63.972,76.631z"/><path fill="#472b29" d="M51.506 67.282c-.08 0-.17-.02-.25-.05-.08-.03-.15-.08-.21-.14-.06-.06-.11-.13-.14-.21-.03-.08-.05-.16-.05-.25 0-.08.02-.17.05-.25.03-.08.08-.15.14-.21s.13-.11.21-.14c.16-.07.34-.07.5 0 .08.03.15.08.21.14.12.12.19.29.19.46 0 .17-.07.34-.19.46-.06.06-.13.11-.21.14C51.676 67.262 51.596 67.282 51.506 67.282zM63.629 40.309h-2.776c-.193 0-.35-.157-.35-.35s.157-.35.35-.35h2.776c.193 0 .35.157.35.35S63.823 40.309 63.629 40.309zM63.629 46.994h-2.776c-.193 0-.35-.157-.35-.35s.157-.35.35-.35h2.776c.193 0 .35.157.35.35S63.822 46.994 63.629 46.994zM63.629 53.678h-2.776c-.193 0-.35-.157-.35-.35s.157-.35.35-.35h2.776c.193 0 .35.157.35.35S63.822 53.678 63.629 53.678zM63.629 60.363h-2.776c-.193 0-.35-.157-.35-.35s.157-.35.35-.35h2.776c.193 0 .35.157.35.35S63.822 60.363 63.629 60.363zM63.629 67.048h-2.776c-.193 0-.35-.157-.35-.35s.157-.35.35-.35h2.776c.193 0 .35.157.35.35S63.822 67.048 63.629 67.048zM63.629 33.624h-2.776c-.193 0-.35-.157-.35-.35s.157-.35.35-.35h2.776c.193 0 .35.157.35.35S63.823 33.624 63.629 33.624zM58.055 73.529c-.871 0-1.579-.708-1.579-1.579s.708-1.579 1.579-1.579 1.579.708 1.579 1.579S58.926 73.529 58.055 73.529zM58.055 71.071c-.485 0-.879.394-.879.879s.394.879.879.879.879-.394.879-.879S58.54 71.071 58.055 71.071zM34.433 38.564c-.032 0-.064-.012-.088-.037l-2.082-2.088c-.049-.049-.049-.128 0-.177.049-.049.128-.048.177 0l2.082 2.088c.049.049.049.128 0 .177C34.497 38.552 34.465 38.564 34.433 38.564zM35.889 38.204c-.032 0-.064-.012-.088-.037L33.72 36.08c-.049-.049-.049-.128 0-.177.049-.049.128-.048.177 0l2.082 2.088c.049.049.049.128 0 .177C35.953 38.192 35.921 38.204 35.889 38.204zM37.461 37.959c-.032 0-.064-.012-.088-.037l-2.312-2.319c-.049-.049-.049-.128 0-.177.049-.049.128-.048.177 0l2.312 2.319c.049.049.049.128 0 .177C37.525 37.947 37.493 37.959 37.461 37.959zM38.93 37.612c-.032 0-.064-.012-.088-.037l-2.336-2.344c-.049-.049-.049-.128 0-.177.049-.049.128-.048.177 0l2.336 2.344c.049.049.049.128 0 .177C38.994 37.6 38.962 37.612 38.93 37.612zM40.387 37.251c-.032 0-.064-.012-.088-.037l-2.336-2.343c-.049-.049-.049-.128 0-.177.049-.049.128-.048.177 0l2.336 2.343c.049.049.049.128 0 .177C40.45 37.239 40.418 37.251 40.387 37.251zM41.843 36.892c-.032 0-.064-.012-.088-.037l-2.336-2.344c-.049-.049-.049-.128 0-.177.049-.049.128-.049.177 0l2.336 2.344c.049.049.049.128 0 .177C41.907 36.879 41.875 36.892 41.843 36.892zM43.3 36.531c-.032 0-.064-.012-.088-.037l-2.336-2.343c-.049-.049-.049-.128 0-.177.049-.049.128-.048.177 0l2.336 2.343c.049.049.049.128 0 .177C43.364 36.519 43.331 36.531 43.3 36.531z"/></svg>