<svg xmlns="http://www.w3.org/2000/svg" viewBox="0 0 100 100"><path fill="#c7ede6" d="M88.755,55.926c0.3-0.616,0.566-1.264,0.796-1.943c2.633-7.77-1.349-17.078-9.733-19.325c-0.906-11.384-8.906-19.193-17.941-20.526c-10.341-1.525-19.814,5.044-22.966,15.485c-3.799-1.346-7.501-1.182-10.99,0.857c-1.583,0.732-3.031,1.812-4.33,3.233c-1.907,2.086-3.147,4.719-3.652,7.495c-0.748,0.118-1.483,0.236-2.176,0.484c-4.04,1.449-6.589,4.431-7.288,8.923c-0.435,2.797,0.443,5.587,0.933,6.714c1.935,4.455,6.422,6.98,10.981,6.312c0.227-0.033,0.557,0.069,0.752,0.233c0.241,7.12,3.698,13.417,8.884,17.014c8.321,5.772,19.027,3.994,25.781-3.921c2.894,2.96,6.338,4.398,10.384,3.876c4.023-0.519,7.147-2.739,9.426-6.349c1.053,0.283,2.051,0.691,3.083,0.804c4.042,0.442,7.324-1.165,9.732-4.8c0.922-1.391,1.793-3.194,1.793-6.354C92.225,60.883,90.931,57.916,88.755,55.926z"></path><path fill="#fff" d="M71.598 21.685h-10.03c-.276 0-.5-.224-.5-.5s.224-.5.5-.5h10.03c.276 0 .5.224.5.5S71.874 21.685 71.598 21.685zM74.479 21.685h-1.446c-.276 0-.5-.224-.5-.5s.224-.5.5-.5h1.446c.276 0 .5.224.5.5S74.755 21.685 74.479 21.685zM78.534 21.685h-2.546c-.276 0-.5-.224-.5-.5s.224-.5.5-.5h2.546c.276 0 .5.224.5.5S78.81 21.685 78.534 21.685zM76.508 17.956h-9.616c-.276 0-.5-.224-.5-.5s.224-.5.5-.5h9.616c.276 0 .5.224.5.5S76.784 17.956 76.508 17.956zM65.16 17.956h-.58c-.276 0-.5-.224-.5-.5s.224-.5.5-.5h.58c.276 0 .5.224.5.5S65.436 17.956 65.16 17.956zM62.783 17.956h-1.457c-.276 0-.5-.224-.5-.5s.224-.5.5-.5h1.457c.276 0 .5.224.5.5S63.059 17.956 62.783 17.956zM73.945 19.82h-5.028c-.276 0-.5-.224-.5-.5s.224-.5.5-.5h5.028c.276 0 .5.224.5.5S74.221 19.82 73.945 19.82z"></path><path fill="#fff" d="M73.945 17.956h-1.257c-.276 0-.5-.224-.5-.5s.224-.5.5-.5h1.257c.276 0 .5.224.5.5S74.221 17.956 73.945 17.956zM67.462 19.82h-1.759c-.276 0-.5-.224-.5-.5s.224-.5.5-.5h1.759c.276 0 .5.224.5.5S67.738 19.82 67.462 19.82z"></path><path fill="#fdfcef" d="M34.098,45.679c1.883,0,3.517,0,3.54,0c2.11,0,3.821-1.674,3.821-3.739c0-1.802-1.302-3.305-3.035-3.66c0.02-0.158,0.034-0.317,0.034-0.48c0-2.139-1.772-3.873-3.957-3.873c-1.29,0-2.433,0.607-3.155,1.543c-0.185-2.381-2.358-4.218-4.9-3.913c-1.859,0.223-3.397,1.629-3.739,3.431c-0.11,0.578-0.098,1.139,0.011,1.665c-0.498-0.525-1.208-0.856-1.998-0.856c-1.446,0-2.627,1.102-2.72,2.494c-0.657-0.142-1.371-0.133-2.123,0.143c-1.438,0.528-2.462,1.853-2.522,3.356c-0.085,2.133,1.657,3.889,3.818,3.889c0.164,0,0.741,0,0.874,0h7.934 M27.621,45.679h0.36"></path><path fill="#472b29" d="M37.639,46.179h-3.54c-0.276,0-0.5-0.224-0.5-0.5s0.224-0.5,0.5-0.5h3.54c1.831,0,3.321-1.453,3.321-3.239c0-1.524-1.108-2.858-2.636-3.17c-0.256-0.053-0.429-0.294-0.396-0.554c0.018-0.137,0.03-0.275,0.03-0.417c0-1.86-1.551-3.373-3.457-3.373c-1.092,0-2.098,0.491-2.76,1.349c-0.126,0.164-0.341,0.23-0.539,0.174c-0.198-0.06-0.339-0.234-0.355-0.44c-0.079-1.02-0.565-1.944-1.369-2.604c-0.828-0.679-1.883-0.979-2.973-0.853c-1.646,0.197-3.006,1.442-3.307,3.027c-0.094,0.495-0.091,0.99,0.009,1.472c0.045,0.219-0.06,0.441-0.258,0.545c-0.197,0.102-0.44,0.063-0.594-0.1c-0.428-0.451-1.009-0.7-1.635-0.7c-1.169,0-2.145,0.891-2.221,2.027c-0.01,0.146-0.082,0.278-0.198,0.366c-0.116,0.087-0.262,0.122-0.406,0.089c-0.639-0.138-1.243-0.098-1.846,0.125c-1.262,0.463-2.144,1.631-2.195,2.905c-0.035,0.876,0.283,1.709,0.896,2.346c0.635,0.661,1.495,1.024,2.422,1.024h8.808c0.276,0,0.5,0.224,0.5,0.5s-0.224,0.5-0.5,0.5h-8.808c-1.185,0-2.331-0.485-3.144-1.331c-0.803-0.835-1.219-1.929-1.173-3.078c0.067-1.675,1.212-3.204,2.849-3.806c0.61-0.225,1.241-0.305,1.88-0.244c0.344-1.396,1.629-2.424,3.135-2.424c0.493,0,0.977,0.113,1.414,0.323c0.009-0.242,0.037-0.484,0.083-0.727c0.381-2.009,2.096-3.585,4.17-3.833c1.364-0.166,2.685,0.218,3.726,1.071c0.748,0.613,1.278,1.409,1.546,2.302c0.791-0.648,1.786-1.007,2.842-1.007c2.458,0,4.457,1.962,4.457,4.373c0,0.034,0,0.068-0.001,0.103c1.764,0.555,3.003,2.188,3.003,4.038C41.959,44.278,40.021,46.179,37.639,46.179z M27.981,46.179h-0.36c-0.276,0-0.5-0.224-0.5-0.5s0.224-0.5,0.5-0.5h0.36c0.276,0,0.5,0.224,0.5,0.5S28.257,46.179,27.981,46.179z"></path><path fill="#472b29" d="M35.931 40.376c-.018 0-.036-.002-.055-.006-.135-.03-.22-.164-.189-.299.038-.166.095-.327.17-.479.605-1.224 2.275-1.674 3.722-1.006.125.058.18.206.122.331-.058.126-.207.179-.332.122-1.202-.556-2.578-.208-3.063.774-.058.117-.102.24-.13.367C36.149 40.296 36.046 40.376 35.931 40.376zM30.772 46.179h-1.107c-.276 0-.5-.224-.5-.5s.224-.5.5-.5h1.107c.276 0 .5.224.5.5S31.049 46.179 30.772 46.179z"></path><path fill="#fff" d="M16.153 54.85H6.123c-.276 0-.5-.224-.5-.5s.224-.5.5-.5h10.03c.276 0 .5.224.5.5S16.43 54.85 16.153 54.85zM19.035 54.85h-1.446c-.276 0-.5-.224-.5-.5s.224-.5.5-.5h1.446c.276 0 .5.224.5.5S19.311 54.85 19.035 54.85zM23.089 54.85h-2.546c-.276 0-.5-.224-.5-.5s.224-.5.5-.5h2.546c.276 0 .5.224.5.5S23.366 54.85 23.089 54.85zM23.089 56.714h-9.617c-.276 0-.5-.224-.5-.5s.224-.5.5-.5h9.617c.276 0 .5.224.5.5S23.366 56.714 23.089 56.714zM11.741 56.714h-.58c-.276 0-.5-.224-.5-.5s.224-.5.5-.5h.58c.276 0 .5.224.5.5S12.017 56.714 11.741 56.714zM9.364 56.714H7.908c-.276 0-.5-.224-.5-.5s.224-.5.5-.5h1.456c.276 0 .5.224.5.5S9.64 56.714 9.364 56.714zM18.5 52.985h-5.028c-.276 0-.5-.224-.5-.5s.224-.5.5-.5H18.5c.276 0 .5.224.5.5S18.777 52.985 18.5 52.985zM18.5 51.121h-1.257c-.276 0-.5-.224-.5-.5s.224-.5.5-.5H18.5c.276 0 .5.224.5.5S18.777 51.121 18.5 51.121zM15.231 58.58h-1.759c-.276 0-.5-.224-.5-.5s.224-.5.5-.5h1.759c.276 0 .5.224.5.5S15.508 58.58 15.231 58.58z"></path><path fill="#cbc9bc" d="M46.292,30.477h-2.879c-0.412,0-0.75-0.337-0.75-0.75v-0.377c0-0.412,0.337-0.75,0.75-0.75h2.879c0.412,0,0.75,0.337,0.75,0.75v0.377C47.042,30.14,46.705,30.477,46.292,30.477z"></path><path fill="#472b29" d="M46.292,30.852h-2.879c-0.62,0-1.125-0.505-1.125-1.125v-0.376c0-0.62,0.505-1.125,1.125-1.125h2.879c0.62,0,1.125,0.505,1.125,1.125v0.376C47.417,30.347,46.912,30.852,46.292,30.852z M43.413,28.976c-0.207,0-0.375,0.168-0.375,0.375v0.376c0,0.207,0.168,0.375,0.375,0.375h2.879c0.207,0,0.375-0.168,0.375-0.375v-0.376c0-0.207-0.168-0.375-0.375-0.375H43.413z"></path><path fill="#e1e0d8" d="M82.383,34.965v27.592c0,2.75-2.25,5-5,5H35.108c-2.75,0-5-2.25-5-5V34.965c0-2.75,2.25-5,5-5h42.276C80.133,29.965,82.383,32.215,82.383,34.965z"></path><path fill="#472b29" d="M77.384,68.256H35.108c-3.143,0-5.7-2.558-5.7-5.7V34.965c0-3.143,2.557-5.7,5.7-5.7h42.276c3.143,0,5.7,2.558,5.7,5.7v27.591C83.084,65.699,80.527,68.256,77.384,68.256z M35.108,30.666c-2.371,0-4.3,1.929-4.3,4.3v27.591c0,2.371,1.929,4.3,4.3,4.3h42.276c2.371,0,4.3-1.929,4.3-4.3V34.965c0-2.371-1.929-4.3-4.3-4.3H35.108z"></path><path fill="#c5def0" d="M41.574 33.186L74.476 33.186 74.476 64.336 67.254 64.336 59.229 64.336 34.352 64.336 34.352 37.339 34.352 33.186z"></path><path fill="#472b29" d="M59.229 64.711H34.352c-.207 0-.375-.168-.375-.375V37.339c0-.207.168-.375.375-.375s.375.168.375.375v26.621h24.502c.207 0 .375.168.375.375S59.436 64.711 59.229 64.711zM74.476 64.711h-7.222c-.207 0-.375-.168-.375-.375s.168-.375.375-.375h6.847V33.561H41.575c-.207 0-.375-.168-.375-.375s.168-.375.375-.375h32.901c.207 0 .375.168.375.375v31.149C74.851 64.543 74.683 64.711 74.476 64.711z"></path><path fill="#b7b5ab" d="M78.005 47.197A1.564 1.564 0 1 0 78.005 50.325A1.564 1.564 0 1 0 78.005 47.197Z"></path><path fill="#472b29" d="M78.005 50.7c-1.069 0-1.938-.869-1.938-1.938s.87-1.939 1.938-1.939c1.069 0 1.939.87 1.939 1.939S79.074 50.7 78.005 50.7zM78.005 47.572c-.655 0-1.188.533-1.188 1.189 0 .655.533 1.188 1.188 1.188.656 0 1.189-.533 1.189-1.188C79.194 48.105 78.661 47.572 78.005 47.572zM32.609 46.259v5.004c0 .172-.141.313-.313.313l0 0c-.172 0-.313-.141-.313-.313v-5.004c0-.172.141-.313.313-.313l0 0C32.468 45.946 32.609 46.087 32.609 46.259zM36.76 33.561h-2.408c-.207 0-.375-.168-.375-.375s.168-.375.375-.375h2.408c.207 0 .375.168.375.375S36.967 33.561 36.76 33.561zM38.364 33.562c-.05 0-.1-.01-.14-.029-.05-.021-.09-.05-.12-.08-.07-.07-.11-.17-.11-.271 0-.09.04-.189.11-.26.1-.11.27-.14.4-.08.05.021.09.04.13.08.07.07.11.17.11.26 0 .051-.01.101-.03.15-.02.04-.05.08-.09.12-.03.03-.07.06-.12.08C38.464 33.552 38.414 33.562 38.364 33.562zM65.649 64.711h-1.605c-.207 0-.375-.168-.375-.375s.168-.375.375-.375h1.605c.207 0 .375.168.375.375S65.856 64.711 65.649 64.711z"></path><path fill="#fdfcef" d="M78.365,71.562c0,0,11.691,0,11.762,0c2.7,0,4.888-2.189,4.888-4.889c0-2.355-1.666-4.321-3.884-4.784c0.026-0.206,0.043-0.415,0.043-0.628c0-2.796-2.267-5.063-5.063-5.063c-1.651,0-3.113,0.794-4.037,2.017c-0.236-3.113-3.017-5.514-6.27-5.116c-2.379,0.291-4.346,2.13-4.784,4.486c-0.14,0.756-0.126,1.489,0.014,2.177c-0.638-0.687-1.546-1.119-2.557-1.119c-1.85,0-3.361,1.441-3.48,3.261c-0.84-0.186-1.754-0.174-2.717,0.188c-1.84,0.691-3.15,2.423-3.227,4.387c-0.109,2.789,2.12,5.085,4.885,5.085c0.21,0,0.948,0,1.118,0h10.151"></path><path fill="#472b29" d="M90.127,72.062H78.365c-0.276,0-0.5-0.224-0.5-0.5s0.224-0.5,0.5-0.5h11.762c2.419,0,4.388-1.969,4.388-4.389c0-2.067-1.466-3.873-3.486-4.295c-0.254-0.053-0.426-0.292-0.394-0.55c0.023-0.188,0.039-0.375,0.039-0.568c0-2.516-2.047-4.562-4.563-4.562c-1.438,0-2.765,0.663-3.638,1.818c-0.125,0.166-0.338,0.237-0.54,0.178c-0.199-0.059-0.342-0.234-0.357-0.441c-0.104-1.378-0.779-2.672-1.851-3.55c-1.083-0.888-2.454-1.28-3.859-1.108c-2.166,0.266-3.956,1.943-4.353,4.08c-0.125,0.668-0.12,1.336,0.012,1.987c0.045,0.22-0.062,0.442-0.261,0.544c-0.2,0.104-0.443,0.06-0.595-0.104c-0.574-0.618-1.352-0.959-2.19-0.959c-1.569,0-2.878,1.227-2.981,2.793c-0.01,0.146-0.082,0.28-0.199,0.367c-0.117,0.089-0.268,0.118-0.408,0.089c-0.84-0.185-1.637-0.132-2.433,0.167c-1.669,0.627-2.836,2.209-2.903,3.938c-0.047,1.207,0.387,2.351,1.222,3.219c0.835,0.868,1.959,1.347,3.164,1.347h11.269c0.276,0,0.5,0.224,0.5,0.5s-0.224,0.5-0.5,0.5H63.94c-1.479,0-2.858-0.587-3.884-1.653c-1.025-1.066-1.558-2.47-1.5-3.951c0.083-2.126,1.51-4.069,3.551-4.835c0.8-0.3,1.628-0.398,2.468-0.299c0.376-1.822,1.997-3.182,3.905-3.182c0.685,0,1.354,0.18,1.944,0.509c0-0.385,0.035-0.772,0.107-1.159c0.476-2.562,2.62-4.572,5.215-4.89c1.681-0.21,3.319,0.266,4.615,1.327c1.004,0.823,1.717,1.951,2.039,3.194c1.012-0.916,2.319-1.426,3.714-1.426c3.067,0,5.563,2.495,5.563,5.562c0,0.084-0.002,0.167-0.007,0.249c2.254,0.673,3.848,2.776,3.848,5.164C95.515,69.645,93.098,72.062,90.127,72.062z"></path><path fill="#fdfcef" d="M75.532,60.793c-1.808-0.119-3.365,1.13-3.476,2.789c-0.014,0.206-0.005,0.409,0.025,0.606c-0.349-0.394-0.865-0.661-1.458-0.7c-1.085-0.071-2.022,0.645-2.158,1.62c-0.197-0.054-0.403-0.09-0.616-0.104c-1.582-0.104-2.944,0.989-3.042,2.441"></path><path fill="#472b29" d="M64.808,67.694c-0.006,0-0.012,0-0.017-0.001c-0.138-0.009-0.242-0.128-0.233-0.266c0.106-1.587,1.593-2.789,3.307-2.673c0.135,0.008,0.271,0.026,0.409,0.053c0.274-0.968,1.267-1.645,2.365-1.568c0.425,0.027,0.824,0.16,1.164,0.382c0.001-0.019,0.002-0.036,0.003-0.055c0.121-1.794,1.797-3.163,3.742-3.022c0.138,0.009,0.242,0.128,0.233,0.266c-0.009,0.138-0.143,0.254-0.266,0.232c-1.678-0.078-3.108,1.039-3.211,2.558c-0.012,0.184-0.004,0.369,0.023,0.552c0.017,0.109-0.041,0.217-0.141,0.264c-0.1,0.047-0.22,0.022-0.293-0.061c-0.318-0.359-0.787-0.584-1.288-0.617c-0.927-0.042-1.775,0.556-1.893,1.405c-0.01,0.071-0.05,0.135-0.11,0.175s-0.133,0.052-0.204,0.032c-0.19-0.052-0.381-0.084-0.567-0.097c-1.433-0.078-2.687,0.896-2.776,2.208C65.048,67.592,64.938,67.694,64.808,67.694z"></path><path fill="#fdfcef" d="M92.106,62.462c-1.699-0.801-3.664-0.234-4.389,1.267c-0.09,0.186-0.157,0.379-0.201,0.574"></path><path fill="#472b29" d="M87.516,64.552c-0.018,0-0.037-0.002-0.056-0.006c-0.134-0.031-0.219-0.165-0.188-0.3c0.049-0.215,0.123-0.426,0.22-0.627c0.783-1.621,2.901-2.242,4.72-1.385c0.125,0.06,0.179,0.208,0.12,0.333s-0.21,0.177-0.333,0.12c-1.574-0.744-3.394-0.226-4.057,1.148c-0.081,0.167-0.142,0.343-0.183,0.521C87.734,64.474,87.631,64.552,87.516,64.552z"></path><path fill="#fdfcee" d="M46.475,42.409l-0.111,8.244l-0.006,0.415l-0.083,6.156c-1.469,0.004-4.839-3.687-6.792-3.157c-0.997,0.27-2.026,1.033-1.978,2.022c0.046,0.947,9.319,8.042,9.533,9.779L46.94,73.18h16.003l0.106-20.823c0.017-1.238-0.995-2.255-2.247-2.234c-1.201,0.02-2.125,0.424-2.141,1.561l0.004-1.356c0.014-1.072-0.861-1.939-1.946-1.926c-1.085,0.013-1.984,0.901-1.998,1.974l0.008-0.627c0.014-1.01-0.668-1.934-1.673-2.089c-1.033-0.159-1.956,0.494-2.275,1.421l0.088-6.561c0.015-1.095-0.879-1.98-1.987-1.966l-0.443,0.005C48.441,40.56,46.445,40.584,46.475,42.409z"></path><path fill="#472b29" d="M62.943,73.68H46.94c-0.134,0-0.262-0.054-0.356-0.148c-0.094-0.096-0.146-0.225-0.144-0.358l0.099-7.312c-0.094-0.729-3.535-3.801-5.591-5.637c-3.125-2.789-3.915-3.564-3.941-4.111c-0.062-1.282,1.172-2.21,2.346-2.528c1.347-0.37,2.984,0.757,4.566,1.844c0.643,0.441,1.349,0.926,1.866,1.158l0.191-14.178c-0.009-0.645,0.188-1.18,0.587-1.59c0.717-0.737,1.826-0.759,1.873-0.76l0.444-0.005c0.646,0.004,1.308,0.248,1.782,0.722c0.467,0.468,0.719,1.09,0.71,1.751l-0.068,5.07c0.523-0.364,1.173-0.529,1.832-0.431c0.831,0.128,1.515,0.69,1.858,1.446c0.449-0.432,1.057-0.702,1.722-0.71c0.667,0.018,1.286,0.244,1.751,0.709c0.376,0.377,0.611,0.855,0.68,1.373c0.386-0.209,0.917-0.349,1.648-0.361c0.702-0.013,1.436,0.269,1.96,0.791c0.523,0.521,0.805,1.214,0.795,1.95l-0.106,20.818C63.441,73.458,63.218,73.68,62.943,73.68z M47.446,72.68h14.999l0.104-20.325c0.006-0.468-0.172-0.904-0.501-1.232c-0.33-0.329-0.771-0.479-1.237-0.499c-1.635,0.028-1.645,0.783-1.649,1.067c-0.004,0.273-0.227,0.493-0.5,0.493c-0.001,0-0.003,0-0.004,0c-0.275-0.002-0.497-0.227-0.496-0.502l0.004-1.355c0.005-0.384-0.14-0.739-0.407-1.008c-0.273-0.273-0.645-0.399-1.032-0.416c-0.819,0.01-1.494,0.674-1.504,1.48l0,0c-0.004,0.273-0.227,0.493-0.5,0.493c-0.002,0-0.004,0-0.007,0c-0.276-0.004-0.497-0.23-0.493-0.507l0.008-0.627c0.011-0.793-0.526-1.477-1.249-1.588c-0.753-0.116-1.47,0.343-1.727,1.09c-0.08,0.232-0.322,0.378-0.559,0.329c-0.242-0.042-0.417-0.253-0.414-0.499l0.088-6.562c0.005-0.389-0.143-0.755-0.418-1.03c-0.281-0.282-0.681-0.448-1.062-0.429l-0.444,0.005c-0.247,0.005-1.492,0.096-1.471,1.342c0,0.005,0,0.01,0,0.015l-0.2,14.815c-0.004,0.274-0.207,0.478-0.502,0.493c-0.778,0-1.771-0.682-2.921-1.472c-1.264-0.868-2.835-1.94-3.738-1.703c-0.805,0.219-1.643,0.824-1.609,1.515c0.161,0.337,2.072,2.043,3.608,3.414c3.49,3.116,5.788,5.24,5.921,6.328L47.446,72.68z"></path><path fill="#f1bc19" d="M47.402 72.922L47.437 65.714 62.467 65.597 62.432 72.805z"></path><path fill="#472b29" d="M58.422 65.898L58.422 65.898l-11.084-.003c-.166 0-.3-.134-.3-.3s.134-.3.3-.3l0 0 11.084.003c.166 0 .3.134.3.3S58.587 65.898 58.422 65.898zM49.988 63.231c0 0-.001 0-.001 0-.166-.001-.299-.136-.298-.302l.042-8.696c0-.165.135-.298.3-.298 0 0 .001 0 .001 0 .166.001.299.136.298.301l-.042 8.696C50.287 63.098 50.153 63.231 49.988 63.231zM54.398 60.576c0 0-.001 0-.001 0-.166-.001-.299-.136-.298-.301l.03-6.132c0-.166.135-.299.3-.299 0 0 .001 0 .001 0 .166.001.299.136.298.301l-.03 6.132C54.697 60.443 54.563 60.576 54.398 60.576zM58.803 58.701c0 0-.001 0-.001 0-.166-.001-.299-.136-.298-.301l.021-4.349c0-.166.135-.299.3-.299h.001c.166.001.299.136.298.301l-.021 4.349C59.102 58.568 58.968 58.701 58.803 58.701zM59.349 65.91c-.163 0-.297-.13-.3-.294-.003-.165.128-.303.294-.306l.879-.018c.002 0 .004 0 .006 0 .163 0 .297.13.3.294.003.165-.128.303-.294.306l-.879.018C59.353 65.91 59.351 65.91 59.349 65.91zM61.408 65.868c-.166 0-.3-.105-.3-.271V65.54c0-.166.134-.3.3-.3s.3.134.3.3S61.573 65.868 61.408 65.868zM54.39 62.261h-.001c-.166-.001-.299-.136-.298-.301l.004-.869c0-.166.135-.299.3-.299 0 0 .001 0 .001 0 .166.001.299.136.298.301l-.004.869C54.689 62.129 54.555 62.261 54.39 62.261zM54.383 63.575c0 0-.001 0-.001 0-.166-.001-.299-.136-.298-.301l.002-.435c0-.166.135-.299.3-.299h.001c.166.001.299.136.298.301l-.002.435C54.682 63.442 54.548 63.575 54.383 63.575z"></path><path fill="#ee3e54" d="M59.856,67.944c0.607-0.013,1.097,0.464,1.094,1.064c-0.003,0.6-0.497,1.097-1.105,1.11c-0.607,0.013-1.097-0.464-1.094-1.064C58.754,68.453,59.249,67.956,59.856,67.944z"></path><path fill="#472b29" d="M59.821 70.418c-.366 0-.708-.139-.966-.393-.262-.258-.405-.604-.403-.973.003-.761.631-1.393 1.398-1.408.402-.013.732.132.997.393.262.258.405.603.403.973-.003.761-.631 1.393-1.398 1.408C59.841 70.418 59.831 70.418 59.821 70.418zM59.88 68.244c-.006 0-.012 0-.018 0-.445.01-.809.373-.811.811-.001.207.079.399.225.543.149.146.336.219.563.221.445-.01.809-.374.811-.812.001-.207-.079-.399-.224-.542C60.281 68.322 60.087 68.244 59.88 68.244zM40.457 50.563c-.207 0-.375-.167-.375-.374L40.061 41.1c0-.207.167-.376.374-.376 0 0 0 0 .001 0 .207 0 .375.167.375.374l.021 9.089C40.832 50.394 40.665 50.563 40.457 50.563 40.457 50.563 40.457 50.563 40.457 50.563z"></path><path fill="#472b29" d="M40.456,50.563c-0.078,0-0.157-0.024-0.225-0.075l-3.41-2.559c-0.166-0.124-0.199-0.359-0.075-0.524c0.124-0.166,0.359-0.201,0.525-0.075l3.41,2.559c0.166,0.124,0.199,0.359,0.075,0.524C40.683,50.511,40.571,50.563,40.456,50.563z"></path><path fill="#472b29" d="M40.457,50.563c-0.114,0-0.226-0.051-0.299-0.148c-0.125-0.165-0.093-0.4,0.072-0.525l3.398-2.574c0.166-0.127,0.401-0.094,0.525,0.072c0.125,0.165,0.093,0.4-0.072,0.525l-3.398,2.574C40.616,50.539,40.536,50.563,40.457,50.563z"></path></svg>