<?xml version="1.0" encoding="iso-8859-1"?>
<!-- Generator: Adobe Illustrator 22.0.1, SVG Export Plug-In . SVG Version: 6.00 Build 0)  -->
<svg xmlns="http://www.w3.org/2000/svg" xmlns:xlink="http://www.w3.org/1999/xlink" version="1.1" id="Layer_1" x="0px" y="0px" viewBox="0 0 64 64" style="enable-background:new 0 0 64 64;" xml:space="preserve" width="512" height="512">
<style type="text/css">
	.st0{fill:#52B8D9;}
	.st1{fill:#63312D;}
	.st2{fill:#82D9FF;}
	.st3{fill:#CAF4FF;}
	.st4{fill:#F8F3F3;}
	.st5{fill:#F9DD9D;}
	.st6{fill:#FFEECF;}
	.st7{fill:#F9A287;}
	.st8{fill:#FFC8BB;}
	.st9{fill:#DB785A;}
	.st10{fill:#D1D1D1;}
	.st11{fill:#BCBCBC;}
	.st12{fill:#EFC36A;}
	.st13{fill:#84DBFF;}
	.st14{fill:#E1DDDD;}
</style>
<g>
	<path class="st0" d="M46.979,60.537h-5.244V5.77h5.244c1.105,0,2,0.895,2,2v50.767C48.979,59.642,48.083,60.537,46.979,60.537z"/>
	<path class="st1" d="M46.979,61.037h-5.244c-0.276,0-0.5-0.224-0.5-0.5V5.771c0-0.276,0.224-0.5,0.5-0.5h5.244   c1.378,0,2.5,1.122,2.5,2.5v50.767C49.479,59.916,48.357,61.037,46.979,61.037z M42.235,60.037h4.744c0.827,0,1.5-0.673,1.5-1.5   V7.771c0-0.827-0.673-1.5-1.5-1.5h-4.744V60.037z"/>
	<path class="st2" d="M43.735,60.537H5.745c-1.105,0-2-0.895-2-2V7.77c0-1.105,0.895-2,2-2h37.99c1.105,0,2,0.895,2,2v50.767   C45.735,59.642,44.839,60.537,43.735,60.537z"/>
	<path class="st3" d="M6.745,7.77h38.99c0-1.105-0.895-2-2-2H5.745c-1.105,0-2,0.895-2,2v50.767c0,1.105,0.895,2,2,2V8.77   C5.745,8.218,6.193,7.77,6.745,7.77z"/>
	<path class="st1" d="M43.735,61.037H5.745c-1.378,0-2.5-1.122-2.5-2.5V7.771c0-1.378,1.122-2.5,2.5-2.5h37.99   c1.378,0,2.5,1.122,2.5,2.5v50.767C46.235,59.916,45.113,61.037,43.735,61.037z M5.745,6.271c-0.827,0-1.5,0.673-1.5,1.5v50.767   c0,0.827,0.673,1.5,1.5,1.5h37.99c0.827,0,1.5-0.673,1.5-1.5V7.771c0-0.827-0.673-1.5-1.5-1.5H5.745z"/>
	<rect x="7.745" y="9.77" class="st4" width="33.99" height="46.767"/>
	<path class="st1" d="M41.735,57.037H7.745c-0.276,0-0.5-0.224-0.5-0.5V9.771c0-0.276,0.224-0.5,0.5-0.5h33.99   c0.276,0,0.5,0.224,0.5,0.5v46.767C42.235,56.813,42.011,57.037,41.735,57.037z M8.245,56.037h32.99V10.271H8.245V56.037z"/>
	<path class="st5" d="M56.676,60.501l2.197-4.322V20.811c0-1.884-1.527-3.411-3.411-3.411h0c-1.884,0-3.411,1.527-3.411,3.411V56.18   l2.197,4.322c0.232,0.457,0.702,0.745,1.214,0.745h0C55.975,61.246,56.444,60.958,56.676,60.501z"/>
	<path class="st7" d="M58.873,28.226l0-7.249c0-1.674-1.128-3.223-2.775-3.521c-2.164-0.391-4.047,1.262-4.047,3.354v7.416H58.873z"/>
	<rect x="52.051" y="50.23" class="st2" width="6.822" height="2.732"/>
	<path class="st1" d="M55.462,61.746c-0.705,0-1.341-0.39-1.661-1.019l-2.196-4.321c-0.036-0.07-0.054-0.148-0.054-0.227V20.811   c0-2.157,1.754-3.911,3.911-3.911c2.156,0,3.911,1.754,3.911,3.911V56.18c0,0.079-0.019,0.156-0.054,0.227l-2.196,4.321   C56.803,61.356,56.167,61.746,55.462,61.746z M52.551,56.06l2.142,4.214c0.296,0.582,1.241,0.583,1.538,0l0,0l2.142-4.214V20.811   c0-1.605-1.306-2.911-2.911-2.911s-2.911,1.306-2.911,2.911V56.06z"/>
	<rect x="52.051" y="27.727" class="st1" width="6.822" height="1"/>
	<rect x="52.142" y="49.729" class="st1" width="6.601" height="1"/>
	<rect x="52.142" y="52.461" class="st1" width="6.601" height="1"/>
	<path class="st2" d="M58.653,37.818L58.653,37.818c-0.884,0-1.601-0.717-1.601-1.601v-9.742c0-0.884,0.717-1.601,1.601-1.601h0   c0.884,0,1.601,0.717,1.601,1.601v9.742C60.255,37.101,59.538,37.818,58.653,37.818z"/>
	<path class="st1" d="M58.653,38.318c-1.159,0-2.102-0.943-2.102-2.102v-9.742c0-1.159,0.943-2.102,2.102-2.102   s2.102,0.943,2.102,2.102v9.742C60.755,37.375,59.812,38.318,58.653,38.318z M58.653,25.373c-0.607,0-1.102,0.494-1.102,1.102   v9.742c0,0.607,0.494,1.102,1.102,1.102s1.102-0.494,1.102-1.102v-9.742C59.755,25.867,59.261,25.373,58.653,25.373z"/>
	<rect x="14.987" y="2.754" class="st5" width="20.708" height="9.392"/>
	<polygon class="st6" points="16.987,4.754 35.695,4.754 35.695,2.754 14.987,2.754 14.987,12.145 16.987,12.145  "/>
	<path class="st1" d="M35.695,12.646H14.987c-0.276,0-0.5-0.224-0.5-0.5V2.754c0-0.276,0.224-0.5,0.5-0.5h20.708   c0.276,0,0.5,0.224,0.5,0.5v9.392C36.195,12.422,35.972,12.646,35.695,12.646z M15.487,11.646h19.708V3.254H15.487V11.646z"/>
	<rect x="12.955" y="21.227" class="st5" width="10.17" height="10.17"/>
	<path class="st1" d="M23.125,31.897h-10.17c-0.276,0-0.5-0.224-0.5-0.5v-10.17c0-0.276,0.224-0.5,0.5-0.5h10.17   c0.276,0,0.5,0.224,0.5,0.5v10.17C23.625,31.673,23.401,31.897,23.125,31.897z M13.455,30.897h9.17v-9.17h-9.17V30.897z"/>
	<g>
		<path class="st1" d="M19.765,28.489l1.486,1.575h-1.29l-1.085-1.174c-0.275,0.08-0.569,0.116-0.88,0.116    c-1.744,0-3.158-1.308-3.158-3.167c0-1.851,1.415-3.158,3.158-3.158c1.761,0,3.158,1.308,3.158,3.158    C21.152,27.003,20.61,27.946,19.765,28.489z M17.995,28.124c1.228,0,2.117-0.89,2.117-2.286c0-1.397-0.89-2.269-2.117-2.269    s-2.117,0.872-2.117,2.269C15.877,27.234,16.767,28.124,17.995,28.124z"/>
	</g>
	<rect x="12.955" y="36.145" class="st7" width="10.17" height="10.17"/>
	<path class="st1" d="M23.125,46.815h-10.17c-0.276,0-0.5-0.224-0.5-0.5v-10.17c0-0.276,0.224-0.5,0.5-0.5h10.17   c0.276,0,0.5,0.224,0.5,0.5v10.17C23.625,46.592,23.401,46.815,23.125,46.815z M13.455,45.815h9.17v-9.17h-9.17V45.815z"/>
	<g>
		<path class="st1" d="M19.35,43.066h-2.589l-0.445,1.263h-1.059l2.215-6.191h1.174l2.215,6.191h-1.067L19.35,43.066z M18.06,39.366    l-1.014,2.874h2.02L18.06,39.366z"/>
	</g>
	<rect x="30.333" y="20.727" class="st1" width="6.688" height="1"/>
	<rect x="26.333" y="23.27" class="st1" width="10.688" height="1"/>
	<rect x="26.333" y="25.812" class="st1" width="10.688" height="1"/>
	<rect x="26.333" y="28.354" class="st1" width="10.688" height="1"/>
	<rect x="26.333" y="30.897" class="st1" width="6.688" height="1"/>
	<rect x="30.333" y="35.646" class="st1" width="6.688" height="1"/>
	<rect x="26.333" y="38.188" class="st1" width="10.688" height="1"/>
	<rect x="26.333" y="40.73" class="st1" width="10.688" height="1"/>
	<rect x="26.333" y="43.273" class="st1" width="10.688" height="1"/>
	<rect x="26.333" y="45.815" class="st1" width="6.688" height="1"/>
</g>
</svg>
